<svg id="Logo" xmlns="http://www.w3.org/2000/svg" width="192.682" height="163.153" viewBox="0 0 192.682 163.153">
  <text id="Teacher" transform="translate(54.71 160.153)" fill="#6ec448" font-size="21" font-family="Gotham-Book, Gotham"><tspan x="0" y="0">Teacher</tspan></text>
  <g id="Group_178" data-name="Group 178" transform="translate(0 0)">
    <g id="Group_25" data-name="Group 25" transform="translate(0 100.769)">
      <path id="Path_219" data-name="Path 219" d="M-1098.193,656.074v3.65h-8.628v6.526h6.661v3.65h-6.661v6.593h8.628v3.65h-12.278V656.074Z" transform="translate(1110.471 -654.851)" fill="#3871c2"/>
      <path id="Path_220" data-name="Path 220" d="M-997.668,680.143V656.074h6.324a11.6,11.6,0,0,1,8.511,3.532,11.628,11.628,0,0,1,3.515,8.511,11.609,11.609,0,0,1-3.515,8.494,11.6,11.6,0,0,1-8.511,3.532Zm3.633-3.633h2.691a8.1,8.1,0,0,0,5.937-2.472,8.069,8.069,0,0,0,2.456-5.921,8.089,8.089,0,0,0-2.456-5.937,8.1,8.1,0,0,0-5.937-2.472h-2.691Z" transform="translate(1024.862 -654.851)" fill="#3871c2"/>
      <path id="Path_221" data-name="Path 221" d="M-855.638,677.8a8.249,8.249,0,0,1-2.506-6.055V656h3.667v15.743a4.717,4.717,0,0,0,1.43,3.465,4.725,4.725,0,0,0,3.465,1.446,4.69,4.69,0,0,0,3.465-1.446,4.69,4.69,0,0,0,1.447-3.465V656H-841v15.743a8.222,8.222,0,0,1-2.523,6.055,8.25,8.25,0,0,1-6.055,2.506A8.286,8.286,0,0,1-855.638,677.8Z" transform="translate(918.974 -654.798)" fill="#3871c2"/>
      <path id="Path_222" data-name="Path 222" d="M-709.573,656.074v3.65h-5.1v20.419h-3.667V659.724h-5.1v-3.65Z" transform="translate(816.738 -654.851)" fill="#3871c2"/>
      <path id="Path_223" data-name="Path 223" d="M-590.049,656.074v3.65h-8.628v6.526h6.66v3.65h-6.66v6.593h8.628v3.65h-12.278V656.074Z" transform="translate(724.827 -654.851)" fill="#3871c2"/>
      <path id="Path_224" data-name="Path 224" d="M-354.838,656.074v3.65h-5.1v20.419H-363.6V659.724h-5.1v-3.65Z" transform="translate(547.52 -654.851)" fill="#3871c2"/>
      <path id="Path_225" data-name="Path 225" d="M-492.63,659.114a3.463,3.463,0,0,1,2.079-3.27,6.654,6.654,0,0,1,3.073-.5,5.326,5.326,0,0,1,3.992,1.795l2.925-2.951a9.019,9.019,0,0,0-6.734-3.17,9.54,9.54,0,0,0-5.924,1.455,7.57,7.57,0,0,0-3.4,6.441q-.258,6.142,8.187,8.714c.177.054.346.109.515.165v-4.534Q-492.732,661.658-492.63,659.114Z" transform="translate(644.611 -651)" fill="#3871c2"/>
      <path id="Path_226" data-name="Path 226" d="M-480.734,690.514q-2.024-2.871-6.881-4.347c-.2-.06-.385-.121-.57-.182v4.535q4.867,1.606,4.765,4.2a3.59,3.59,0,0,1-1.343,2.552,5.219,5.219,0,0,1-3.809,1.216,6.345,6.345,0,0,1-2.76-.777,3.962,3.962,0,0,1-1.895-2.133l-3.754,1.5a7.9,7.9,0,0,0,3.4,4.228,9.7,9.7,0,0,0,4.82,1.515q.239.02.5.02a8.839,8.839,0,0,0,6-2.174,7.835,7.835,0,0,0,2.833-5.743A7.021,7.021,0,0,0-480.734,690.514Z" transform="translate(644.877 -677.55)" fill="#3871c2"/>
    </g>
    <g id="Group_29" data-name="Group 29" transform="translate(46.882)">
      <g id="Group_28" data-name="Group 28" transform="translate(17.839)">
        <g id="Group_26" data-name="Group 26" transform="translate(13.259 18.563)">
          <path id="Path_227" data-name="Path 227" d="M-748.91,310v10.366c-12.295,1.929-19.045,11.572-19.045,11.572s-6.75-9.643-19.045-11.572V310l19.045,6.509Z" transform="translate(787 -310)" fill="#3871c2"/>
        </g>
        <g id="Group_27" data-name="Group 27">
          <path id="Path_228" data-name="Path 228" d="M-775.7,257.349l-3.857,5.3-3.857-5.3,1.447-4.822V244.8l-27.724,8.688L-842,243.366-809.7,233l32.3,10.366-.241,9.161Z" transform="translate(842 -233)" fill="#3871c2"/>
        </g>
      </g>
      <path id="Path_229" data-name="Path 229" d="M-815.713,400.93c-40.983,1.929-50.143,20.25-50.143,20.25s-9.161-18.322-50.143-20.25l20.491-27.965s17.839-.723,26.036,9.643c0,0-10.246-4.942-20.371-3.254l-9.643,12.536s24.107.723,33.63,10.969c9.523-10.246,33.63-10.969,33.63-10.969l-9.643-12.536c-10.125-1.688-20.371,3.254-20.371,3.254,8.2-10.366,26.036-9.643,26.036-9.643Z" transform="translate(916 -339.215)" fill="#6aa941"/>
    </g>
  </g>
</svg>
