<svg id="Logo1_white" xmlns="http://www.w3.org/2000/svg" width="383.04" height="100.09" viewBox="0 0 383.04 100.09">
  <g id="Group_251" data-name="Group 251">
    <g id="Group_29" data-name="Group 29">
      <g id="Group_28" data-name="Group 28" transform="translate(21.784 0)">
        <g id="Group_26" data-name="Group 26" transform="translate(16.191 22.667)">
          <path id="Path_227" data-name="Path 227" d="M-740.488,310v12.658c-15.013,2.355-23.256,14.13-23.256,14.13s-8.243-11.775-23.256-14.13V310l23.256,7.948Z" transform="translate(787 -310)" fill="#fff"/>
        </g>
        <g id="Group_27" data-name="Group 27">
          <path id="Path_228" data-name="Path 228" d="M-761.045,262.732l-4.71,6.476-4.71-6.476,1.766-5.888v-9.432l-33.854,10.61L-842,245.658-802.553,233l39.447,12.658-.294,11.186Z" transform="translate(842 -233)" fill="#fff"/>
        </g>
      </g>
      <path id="Path_229" data-name="Path 229" d="M-793.538,407.116c-50.045,2.355-61.231,24.728-61.231,24.728S-865.955,409.472-916,407.116l25.022-34.148s21.784-.883,31.793,11.775c0,0-12.511-6.035-24.875-3.974l-11.775,15.308s29.438.883,41.066,13.394c11.628-12.511,41.066-13.394,41.066-13.394l-11.775-15.308c-12.364-2.061-24.875,3.974-24.875,3.974,10.009-12.658,31.793-11.775,31.793-11.775Z" transform="translate(916 -331.755)" fill="#fff"/>
    </g>
  </g>
  <g id="Group_252" data-name="Group 252" transform="translate(147.751 18)">
    <g id="Group_25" data-name="Group 25">
      <path id="Path_219" data-name="Path 219" d="M-1095.478,656.074v4.457h-10.536V668.5h8.133v4.457h-8.133v8.051h10.536v4.457h-14.993V656.074Z" transform="translate(1110.471 -654.58)" fill="#fff"/>
      <path id="Path_220" data-name="Path 220" d="M-997.668,685.465V656.074h7.723a14.165,14.165,0,0,1,10.392,4.313,14.2,14.2,0,0,1,4.293,10.393,14.176,14.176,0,0,1-4.293,10.372,14.165,14.165,0,0,1-10.392,4.313Zm4.436-4.436h3.286a9.887,9.887,0,0,0,7.25-3.019,9.853,9.853,0,0,0,3-7.23,9.877,9.877,0,0,0-3-7.25,9.887,9.887,0,0,0-7.25-3.019h-3.286Z" transform="translate(1030.875 -654.58)" fill="#fff"/>
      <path id="Path_221" data-name="Path 221" d="M-855.084,682.623a10.074,10.074,0,0,1-3.06-7.394V656h4.478v19.225a5.761,5.761,0,0,0,1.746,4.231,5.77,5.77,0,0,0,4.231,1.766,5.727,5.727,0,0,0,4.231-1.766,5.727,5.727,0,0,0,1.767-4.231V656h4.477v19.225a10.041,10.041,0,0,1-3.081,7.394,10.075,10.075,0,0,1-7.394,3.06A10.119,10.119,0,0,1-855.084,682.623Z" transform="translate(932.424 -654.531)" fill="#fff"/>
      <path id="Path_222" data-name="Path 222" d="M-706.509,656.074v4.457h-6.223v24.934h-4.477V660.531h-6.224v-4.457Z" transform="translate(837.37 -654.58)" fill="#fff"/>
      <path id="Path_223" data-name="Path 223" d="M-587.334,656.074v4.457H-597.87V668.5h8.133v4.457h-8.133v8.051h10.536v4.457h-14.993V656.074Z" transform="translate(751.915 -654.58)" fill="#fff"/>
      <path id="Path_224" data-name="Path 224" d="M-351.773,656.074v4.457H-358v24.934h-4.477V660.531H-368.7v-4.457Z" transform="translate(587.061 -654.58)" fill="#fff"/>
      <path id="Path_225" data-name="Path 225" d="M-491.745,660.908a4.229,4.229,0,0,1,2.539-3.994,8.125,8.125,0,0,1,3.752-.609,6.5,6.5,0,0,1,4.875,2.191l3.572-3.6a11.013,11.013,0,0,0-8.223-3.871,11.651,11.651,0,0,0-7.234,1.777,9.244,9.244,0,0,0-4.156,7.865q-.315,7.5,10,10.641c.216.066.423.133.629.2v-5.537Q-491.87,664.015-491.745,660.908Z" transform="translate(677.333 -651)" fill="#fff"/>
      <path id="Path_226" data-name="Path 226" d="M-477.142,691.515q-2.472-3.506-8.4-5.308c-.24-.073-.47-.148-.7-.223v5.537q5.943,1.961,5.819,5.132a4.384,4.384,0,0,1-1.64,3.117,6.372,6.372,0,0,1-4.651,1.485,7.749,7.749,0,0,1-3.37-.949A4.837,4.837,0,0,1-492.4,697.7l-4.584,1.826a9.646,9.646,0,0,0,4.156,5.162,11.85,11.85,0,0,0,5.886,1.85q.292.024.606.024a10.793,10.793,0,0,0,7.324-2.654,9.567,9.567,0,0,0,3.46-7.013A8.573,8.573,0,0,0-477.142,691.515Z" transform="translate(677.58 -675.685)" fill="#fff"/>
    </g>
    <text id="Teacher" transform="translate(76 62)" fill="#fff" font-size="21" font-family="Gotham-Book, Gotham"><tspan x="0" y="0">Teacher</tspan></text>
  </g>
</svg>
