<svg id="Logo1_white_small" xmlns="http://www.w3.org/2000/svg" width="193.201" height="50.484" viewBox="0 0 193.201 50.484">
  <g id="Group_251" data-name="Group 251" transform="translate(0 0)">
    <g id="Group_29" data-name="Group 29">
      <g id="Group_28" data-name="Group 28" transform="translate(10.988)">
        <g id="Group_26" data-name="Group 26" transform="translate(8.167 11.433)">
          <path id="Path_227" data-name="Path 227" d="M-763.54,310v6.385a19.032,19.032,0,0,0-11.73,7.127A19.032,19.032,0,0,0-787,316.385V310l11.73,4.009Z" transform="translate(787 -310)" fill="#fff"/>
        </g>
        <g id="Group_27" data-name="Group 27">
          <path id="Path_228" data-name="Path 228" d="M-801.167,248l-2.376,3.267L-805.919,248l.891-2.97V240.27l-17.076,5.351-19.9-6.236L-822.1,233l19.9,6.385-.148,5.642Z" transform="translate(842 -233)" fill="#fff"/>
        </g>
      </g>
      <path id="Path_229" data-name="Path 229" d="M-854.231,390.186c-25.242,1.188-30.884,12.473-30.884,12.473s-5.642-11.285-30.884-12.473l12.621-17.224s10.988-.445,16.036,5.939c0,0-6.311-3.044-12.547-2l-5.939,7.721s14.848.445,20.713,6.756c5.865-6.31,20.713-6.756,20.713-6.756l-5.939-7.721c-6.236-1.039-12.547,2-12.547,2,5.048-6.385,16.036-5.939,16.036-5.939Z" transform="translate(916 -352.174)" fill="#fff"/>
    </g>
  </g>
  <g id="Group_252" data-name="Group 252" transform="translate(74.524 9.079)">
    <g id="Group_25" data-name="Group 25">
      <path id="Path_219" data-name="Path 219" d="M-1102.909,656.074v2.248h-5.315v4.02h4.1v2.248h-4.1v4.061h5.315V670.9h-7.562V656.074Z" transform="translate(1110.471 -655.321)" fill="#fff"/>
      <path id="Path_220" data-name="Path 220" d="M-997.668,670.9V656.074h3.9a7.145,7.145,0,0,1,5.242,2.176,7.162,7.162,0,0,1,2.165,5.242,7.15,7.15,0,0,1-2.165,5.232,7.145,7.145,0,0,1-5.242,2.175Zm2.238-2.238h1.658a4.987,4.987,0,0,0,3.657-1.523,4.97,4.97,0,0,0,1.513-3.647,4.982,4.982,0,0,0-1.513-3.657,4.986,4.986,0,0,0-3.657-1.523h-1.658Z" transform="translate(1014.417 -655.321)" fill="#fff"/>
      <path id="Path_221" data-name="Path 221" d="M-856.6,669.43a5.081,5.081,0,0,1-1.544-3.729V656h2.258v9.7a2.906,2.906,0,0,0,.881,2.134,2.911,2.911,0,0,0,2.134.891,2.889,2.889,0,0,0,2.134-.891,2.889,2.889,0,0,0,.891-2.134V656h2.258v9.7a5.065,5.065,0,0,1-1.554,3.729,5.082,5.082,0,0,1-3.729,1.543A5.1,5.1,0,0,1-856.6,669.43Z" transform="translate(895.61 -655.261)" fill="#fff"/>
      <path id="Path_222" data-name="Path 222" d="M-714.9,656.074v2.248h-3.139V670.9h-2.258V658.322h-3.139v-2.248Z" transform="translate(780.901 -655.321)" fill="#fff"/>
      <path id="Path_223" data-name="Path 223" d="M-594.765,656.074v2.248h-5.314v4.02h4.1v2.248h-4.1v4.061h5.314V670.9h-7.562V656.074Z" transform="translate(677.777 -655.321)" fill="#fff"/>
      <path id="Path_224" data-name="Path 224" d="M-360.161,656.074v2.248H-363.3V670.9h-2.258V658.322H-368.7v-2.248Z" transform="translate(478.837 -655.321)" fill="#fff"/>
      <path id="Path_225" data-name="Path 225" d="M-494.166,656a2.133,2.133,0,0,1,1.281-2.014,4.1,4.1,0,0,1,1.892-.307,3.28,3.28,0,0,1,2.459,1.105l1.8-1.818a5.555,5.555,0,0,0-4.148-1.953,5.877,5.877,0,0,0-3.649.9,4.662,4.662,0,0,0-2.1,3.967q-.159,3.783,5.043,5.367c.109.033.213.067.317.1V658.55Q-494.229,657.565-494.166,656Z" transform="translate(587.774 -651)" fill="#fff"/>
      <path id="Path_226" data-name="Path 226" d="M-486.974,688.774a7.709,7.709,0,0,0-4.238-2.677c-.121-.037-.237-.074-.351-.112v2.793q3,.989,2.935,2.588a2.211,2.211,0,0,1-.827,1.572,3.214,3.214,0,0,1-2.346.749,3.909,3.909,0,0,1-1.7-.479,2.44,2.44,0,0,1-1.167-1.314l-2.312.921a4.865,4.865,0,0,0,2.1,2.6,5.977,5.977,0,0,0,2.969.933q.147.012.306.012a5.444,5.444,0,0,0,3.694-1.339,4.826,4.826,0,0,0,1.745-3.537A4.324,4.324,0,0,0-486.974,688.774Z" transform="translate(588.073 -680.789)" fill="#fff"/>
    </g>
    <text id="Teacher" transform="translate(35.812 29.689)" fill="#fff" font-size="9" font-family="Gotham-Book, Gotham"><tspan x="0" y="0">Teacher</tspan></text>
  </g>
</svg>
